<svg xmlns="http://www.w3.org/2000/svg" viewBox="0 0 64 64">
  <defs>
    <linearGradient id="bg" x1="0%" y1="0%" x2="100%" y2="100%">
      <stop offset="0%" stop-color="#ff8a3d" />
      <stop offset="100%" stop-color="#ffb366" />
    </linearGradient>
  </defs>
  <rect width="64" height="64" rx="16" fill="#140d09" />
  <rect x="4" y="4" width="56" height="56" rx="14" fill="url(#bg)" opacity="0.14" />
  <path d="M24.9 22.2c-4.7 0-7.6 2.3-7.6 6 0 3.3 2.2 4.9 7 6l2 .4c2.2.4 3.1 1.1 3.1 2.2 0 1.5-1.4 2.4-3.9 2.4-2.7 0-4.5-1-6.3-2.8l-3.6 3.5c2.1 2.6 5.7 4.1 9.9 4.1 5.6 0 9.3-2.8 9.3-7 0-3.2-1.9-5.1-6.4-6l-2-.4c-2.8-.5-3.7-1.1-3.7-2.2 0-1.3 1.2-2.1 3.2-2.1 2.4 0 3.9.8 5.4 2.1l3.4-3.5c-2-2-4.7-3.2-8.8-3.2z" fill="#fff5ee"/>
  <path d="M38.8 22.8h5.8v15.3h10.2V43H38.8z" fill="#fff5ee"/>
</svg>
